<svg width="25" height="28" viewBox="0 0 25 28" fill="none" xmlns="http://www.w3.org/2000/svg">
<path d="M5.55556 14H8.33333V16.8H5.55556V14ZM25 5.6V25.2C25 26.754 23.7639 28 22.2222 28H2.77778C1.23611 28 0 26.74 0 25.2V5.6C0 4.06 1.25 2.8 2.77778 2.8H4.16667V0H6.94444V2.8H18.0556V0H20.8333V2.8H22.2222C23.7639 2.8 25 4.06 25 5.6ZM2.77778 8.4H22.2222V5.6H2.77778V8.4ZM22.2222 25.2V11.2H2.77778V25.2H22.2222ZM16.6667 16.8V14H19.4444V16.8H16.6667ZM11.1111 16.8V14H13.8889V16.8H11.1111ZM5.55556 19.6H8.33333V22.4H5.55556V19.6ZM16.6667 22.4V19.6H19.4444V22.4H16.6667ZM11.1111 22.4V19.6H13.8889V22.4H11.1111Z" fill="#B6A76C"/>
</svg>
