<svg width="27" height="19" viewBox="0 0 27 19" fill="none" xmlns="http://www.w3.org/2000/svg">
<path d="M13.8951 5.86073C12.9559 5.86073 12.0551 6.2423 11.391 6.92149C10.7269 7.60069 10.3538 8.52188 10.3538 9.4824C10.3538 10.4429 10.7269 11.3641 11.391 12.0433C12.0551 12.7225 12.9559 13.1041 13.8951 13.1041C14.8343 13.1041 15.7351 12.7225 16.3992 12.0433C17.0634 11.3641 17.4365 10.4429 17.4365 9.4824C17.4365 8.52188 17.0634 7.60069 16.3992 6.92149C15.7351 6.2423 14.8343 5.86073 13.8951 5.86073ZM13.8951 15.5185C12.3297 15.5185 10.8285 14.8826 9.72159 13.7506C8.61471 12.6186 7.99286 11.0833 7.99286 9.4824C7.99286 7.88153 8.61471 6.34621 9.72159 5.21422C10.8285 4.08223 12.3297 3.44628 13.8951 3.44628C15.4605 3.44628 16.9618 4.08223 18.0686 5.21422C19.1755 6.34621 19.7974 7.88153 19.7974 9.4824C19.7974 11.0833 19.1755 12.6186 18.0686 13.7506C16.9618 14.8826 15.4605 15.5185 13.8951 15.5185ZM13.8951 0.428223C7.99286 0.428223 2.95234 4.18269 0.910156 9.4824C2.95234 14.7821 7.99286 18.5366 13.8951 18.5366C19.7974 18.5366 24.8379 14.7821 26.8801 9.4824C24.8379 4.18269 19.7974 0.428223 13.8951 0.428223Z" fill="#B6A76C"/>
</svg>
