<svg width="25" height="36" viewBox="0 0 25 36" fill="none" xmlns="http://www.w3.org/2000/svg">
<path d="M12.5 8.1C13.684 8.1 14.8195 8.57411 15.6567 9.41802C16.4939 10.2619 16.9643 11.4065 16.9643 12.6C16.9643 13.1909 16.8488 13.7761 16.6245 14.3221C16.4001 14.868 16.0713 15.3641 15.6567 15.782C15.2422 16.1998 14.75 16.5313 14.2084 16.7575C13.6668 16.9836 13.0863 17.1 12.5 17.1C11.316 17.1 10.1805 16.6259 9.34327 15.782C8.50606 14.9381 8.03571 13.7935 8.03571 12.6C8.03571 11.4065 8.50606 10.2619 9.34327 9.41802C10.1805 8.57411 11.316 8.1 12.5 8.1ZM12.5 0C15.8152 0 18.9946 1.3275 21.3388 3.69045C23.683 6.05341 25 9.25827 25 12.6C25 22.05 12.5 36 12.5 36C12.5 36 0 22.05 0 12.6C0 9.25827 1.31696 6.05341 3.66116 3.69045C6.00537 1.3275 9.18479 0 12.5 0ZM12.5 3.6C10.132 3.6 7.86098 4.54821 6.18655 6.23604C4.51211 7.92387 3.57143 10.2131 3.57143 12.6C3.57143 14.4 3.57143 18 12.5 30.078C21.4286 18 21.4286 14.4 21.4286 12.6C21.4286 10.2131 20.4879 7.92387 18.8135 6.23604C17.139 4.54821 14.868 3.6 12.5 3.6Z" fill="#B6A76C"/>
</svg>
