<svg width="35" height="35" viewBox="0 0 35 35" fill="none" xmlns="http://www.w3.org/2000/svg">
<path d="M0 17.3856C0 12.7746 1.84374 8.35254 5.12563 5.09211C8.40752 1.83169 12.8587 0 17.5 0C19.7981 0 22.0738 0.449691 24.197 1.3234C26.3202 2.1971 28.2493 3.47772 29.8744 5.09211C31.4994 6.70651 32.7884 8.62308 33.6679 10.7324C34.5474 12.8417 35 15.1025 35 17.3856C35 21.9965 33.1563 26.4186 29.8744 29.679C26.5925 32.9394 22.1413 34.7711 17.5 34.7711C15.2019 34.7711 12.9262 34.3214 10.803 33.4477C8.67984 32.574 6.75066 31.2934 5.12563 29.679C1.84374 26.4186 0 21.9965 0 17.3856ZM26.25 17.3856L17.5 8.69278V13.9085H10.5V20.8627H17.5V26.0784L26.25 17.3856Z" fill="#B6A76C"/>
</svg>
