<svg width="35" height="35" viewBox="0 0 35 35" fill="none" xmlns="http://www.w3.org/2000/svg">
<path d="M35 17.3856C35 12.7746 33.1563 8.35254 29.8744 5.09211C26.5925 1.83169 22.1413 0 17.5 0C15.2019 0 12.9262 0.449691 10.803 1.3234C8.67984 2.1971 6.75066 3.47772 5.12563 5.09211C3.50061 6.70651 2.21156 8.62308 1.33211 10.7324C0.452652 12.8417 0 15.1025 0 17.3856C0 21.9965 1.84375 26.4186 5.12563 29.679C8.40752 32.9394 12.8587 34.7711 17.5 34.7711C19.7981 34.7711 22.0738 34.3214 24.197 33.4477C26.3202 32.574 28.2493 31.2934 29.8744 29.679C33.1563 26.4186 35 21.9965 35 17.3856ZM8.75 17.3856L17.5 8.69278V13.9085H24.5V20.8627H17.5V26.0784L8.75 17.3856Z" fill="#B6A76C"/>
</svg>
